#!OML:ASF I:\Actors\actors\Patient Classification 2\Patient 1\Session 1\actor1.ASF
:FULLY-SPECIFIED
:DEGREES
517
root -1.64265 18.6852 4.90345 8.78021 4.25434 -3.85346
lowerback 24.2773 -1.0355 4.09733
upperback 8.33417 -0.237589 2.11759
thorax -4.32243 -0.095711 0.0160911
lowerneck -16.9545 -1.2094 -0.138648
upperneck 20.1462 -1.77455 0.634428
head 9.13808 -0.763712 0.0153883
rclavicle 2.22639e-014 -2.66371e-014
rhumerus -32.92 52.6154 -115.301
rradius 139.588
rwrist 5.08183
rhand -38.5585 -34.4427
rfingers 7.12502
rthumb -11.5779 -64.1029
lclavicle 2.22639e-014 -2.66371e-014
lhumerus -14.9533 -58.1418 109.053
lradius 132.249
lwrist 11.8829
lhand -29.2928 -62.3265
lfingers 7.12502
lthumb -2.63444 -32.363
rfemur -9.88016 -4.20568 22.0981
rtibia 12.0193
rfoot -18.4226 -9.69618
rtoes -12.2433
lfemur -22.9821 -3.71475 -5.62363
ltibia 29.237
lfoot -15.0228 5.91586
ltoes -58.7395
518
root -1.5705 18.6735 4.8973 8.8013 4.27623 -3.8066
lowerback 24.3134 -1.03299 4.13492
upperback 8.44681 -0.225592 2.15251
thorax -4.21593 -0.0872625 0.0289102
lowerneck -17.0295 -1.3116 -0.258648
upperneck 20.1241 -1.91369 0.768282
head 9.14748 -0.822499 0.0630084
rclavicle 6.55989e-015 -3.79679e-014
rhumerus -33.3436 52.9648 -115.756
rradius 139.782
rwrist 5.90981
rhand -39.0877 -35.1051
rfingers 7.12502
rthumb -12.0882 -64.736
lclavicle 6.55989e-015 -3.79679e-014
lhumerus -15.0297 -58.2893 109.238
lradius 132.408
lwrist 12.0972
lhand -29.1482 -61.9983
lfingers 7.12502
lthumb -2.49487 -32.0332
rfemur -10.2372 -4.24139 21.7974
rtibia 12.6717
rfoot -18.5709 -9.6036
rtoes -12.1367
lfemur -23.2811 -3.59291 -5.98911
ltibia 29.675
lfoot -15.1723 5.90223
ltoes -58.7603
519
root -1.49621 18.6663 4.89365 8.7846 4.31342 -3.78212
lowerback 24.3695 -1.02698 4.1749
upperback 8.56214 -0.206191 2.20705
thorax -4.11597 -0.0754607 0.0598273
lowerneck -17.1439 -1.38734 -0.282738
upperneck 20.1951 -2.01243 0.769036
head 9.19383 -0.869132 0.0536466
rclavicle 5.96354e-015 2.38542e-015
rhumerus -33.6818 53.2784 -116.005
rradius 140.056
rwrist 6.70848
rhand -39.3278 -35.8658
rfingers 7.12502
rthumb -12.3198 -65.4829
lclavicle 5.96354e-015 2.38542e-015
lhumerus -15.0696 -58.5767 109.446
lradius 132.51
lwrist 12.4241
lhand -29.0679 -61.9546
lfingers 7.12502
lthumb -2.41731 -31.9885
rfemur -10.3717 -4.17107 21.5051
rtibia 12.9851
rfoot -18.6614 -9.6875
rtoes -12.1048
lfemur -23.4965 -3.50336 -6.30424
ltibia 30.036
lfoot -15.2298 5.78593
ltoes -58.6164
520
root -1.42096 18.6672 4.89381 8.75814 4.37917 -3.73227
lowerback 24.4208 -1.03401 4.22932
upperback 8.66192 -0.202963 2.20896
thorax -4.03124 -0.0708063 0.0299807
lowerneck -17.144 -1.40505 -0.13459
upperneck 20.1811 -2.06537 0.719627
head 9.18704 -0.887796 0.00543367
rclavicle 0 1.07344e-014
rhumerus -33.9686 53.3876 -116.206
rradius 140.288
rwrist 7.32597
rhand -39.5263 -35.8886
rfingers 7.12502
rthumb -12.5111 -65.494
lclavicle 0 1.07344e-014
lhumerus -15.3566 -59.0809 109.831
lradius 132.624
lwrist 12.9862
lhand -29.0772 -61.6936
lfingers 7.12502
lthumb -2.42622 -31.7276
rfemur -10.3579 -4.05519 21.1806
rtibia 13.0723
rfoot -18.7617 -9.88602
rtoes -12.102
lfemur -23.6032 -3.3576 -6.64422
ltibia 30.2281
lfoot -15.188 5.53528
ltoes -58.4839
521
root -1.34377 18.6771 4.89792 8.77199 4.32013 -3.65869
lowerback 24.4504 -0.991905 4.22048
upperback 8.74586 -0.155855 2.1634
thorax -3.95243 -0.0453814 -0.0273084
lowerneck -17.2007 -1.39933 -0.0364547
upperneck 20.1985 -2.1101 0.829049
head 9.20406 -0.888397 0.0204622
rclavicle 1.78906e-015 -2.18663e-015
rhumerus -34.4401 53.5122 -116.614
rradius 140.586
rwrist 7.84355
rhand -39.675 -36.1266
rfingers 7.12502
rthumb -12.6545 -65.7233
lclavicle 1.78906e-015 -2.18663e-015
lhumerus -15.8666 -59.5625 110.305
lradius 132.774
lwrist 13.5257
lhand -29.2168 -61.5599
lfingers 7.12502
lthumb -2.56108 -31.5955
rfemur -10.1488 -3.84991 20.8074
rtibia 12.7006
rfoot -18.6689 -10.1777
rtoes -12.0289
lfemur -23.5941 -3.08314 -7.03591
ltibia 30.2539
lfoot -15.0823 5.33047
ltoes -58.5694
522
root -1.27488 18.6936 4.90624 8.89446 3.94659 -3.11988
lowerback 24.4835 -0.723174 3.40024
upperback 8.79791 -0.00446142 2.09186
thorax -3.91367 0.0191458 0.321129
lowerneck -17.3871 -1.37506 -0.0857089
upperneck 20.3281 -2.09265 0.944615
head 9.28518 -0.869358 0.0687761
rclavicle -6.55989e-015 -4.57205e-015
rhumerus -34.8818 53.5881 -116.906
rradius 140.766
rwrist 8.284
rhand -39.788 -35.84
rfingers 7.12502
rthumb -12.7634 -65.4299
lclavicle -6.55989e-015 -4.57205e-015
lhumerus -16.2175 -59.6772 110.688
lradius 132.823
lwrist 13.7885
lhand -29.0415 -61.8489
lfingers 7.12502
lthumb -2.39175 -31.8825
rfemur -9.89561 -3.13217 19.8942
rtibia 12.024
rfoot -18.5806 -10.74
rtoes -11.8419
lfemur -23.4964 -2.907 -7.90484
ltibia 30.1065
lfoot -15.0722 5.4254
ltoes -58.503
523
root -1.17673 18.7117 4.93628 8.61631 4.27934 -2.75916
lowerback 24.4601 -0.884507 3.46347
upperback 9.02362 -0.206268 2.01924
thorax -3.65785 -0.0710991 0.259595
lowerneck -17.661 -1.33818 -0.125555
upperneck 20.5002 -2.02503 0.907547
head 9.395 -0.842755 0.069028
rclavicle -4.17448e-015 -1.19271e-015
rhumerus -35.1839 53.6838 -117.102
rradius 140.902
rwrist 8.64223
rhand -39.6816 -35.8582
rfingers 7.12502
rthumb -12.6608 -65.4545
lclavicle -4.17448e-015 -1.19271e-015
lhumerus -16.355 -59.7858 110.95
lradius 132.796
lwrist 13.9761
lhand -28.8433 -62.0737
lfingers 7.12502
lthumb -2.20035 -32.1053
rfemur -8.94938 -3.80193 19.1621
rtibia 11.2377
rfoot -18.2342 -10.6211
rtoes -11.8507
lfemur -22.9619 -2.98935 -8.6932
ltibia 29.8207
lfoot -15.0322 5.05977
ltoes -58.318
524
root -1.08901 18.7294 4.9605 8.69881 4.22801 -2.36982
lowerback 24.3592 -0.821381 3.34666
upperback 9.04146 -0.167511 1.84547
thorax -3.58931 -0.0497694 0.126785
lowerneck -17.9507 -1.34515 -0.135302
upperneck 20.7768 -2.03917 0.920029
head 9.5456 -0.845179 0.0703271
rclavicle -1.59028e-015 1.39149e-014
rhumerus -35.562 53.6099 -117.524
rradius 141.007
rwrist 8.93205
rhand -39.7433 -36.5049
rfingers 7.12502
rthumb -12.7204 -66.0975
lclavicle -1.59028e-015 1.39149e-014
lhumerus -16.775 -59.9481 111.317
lradius 132.828
lwrist 13.6944
lhand -28.8671 -61.5531
lfingers 7.12502
lthumb -2.22338 -31.5849
rfemur -8.40349 -3.67109 18.3979
rtibia 10.2798
rfoot -18.0516 -10.9599
rtoes -11.8756
lfemur -22.7384 -2.82693 -9.47664
ltibia 29.4932
lfoot -14.9847 4.91033
ltoes -58.1166
525
root -1.01531 18.7469 4.98522 8.91492 3.90701 -1.79521
lowerback 24.3784 -0.586785 2.70199
upperback 8.90345 -0.0190773 1.66954
thorax -3.75121 0.0129209 0.264885
lowerneck -18.2235 -1.35262 -0.205541
upperneck 21.1295 -2.05183 0.990036
head 9.72206 -0.844629 0.101806
rclavicle -4.96962e-015 -9.54166e-015
rhumerus -36.1347 53.5707 -118.126
rradius 141.07
rwrist 9.14964
rhand -39.911 -36.8225
rfingers 7.12502
rthumb -12.882 -66.405
lclavicle -4.96962e-015 -9.54166e-015
lhumerus -17.2573 -59.6894 111.673
lradius 132.911
lwrist 12.5875
lhand -28.7586 -60.3465
lfingers 7.12502
lthumb -2.11856 -30.3773
rfemur -7.786 -3.42452 17.5238
rtibia 8.78438
rfoot -17.533 -11.3967
rtoes -11.6756
lfemur -22.6772 -2.56894 -10.4175
ltibia 29.2848
lfoot -15.0118 4.87317
ltoes -57.8396
526
root -0.922566 18.7591 4.99818 8.91992 3.78625 -1.68832
lowerback 24.6186 -0.549955 2.60604
upperback 8.80956 0.0217914 1.73317
thorax -3.97193 0.0278457 0.379207
lowerneck -18.3993 -1.32021 -0.237247
upperneck 21.2912 -1.94197 0.753775
head 9.80861 -0.822361 0.0379904
rclavicle -6.16232e-015 -2.22639e-014
rhumerus -36.4427 53.7117 -118.231
rradius 141.146
rwrist 9.2638
rhand -39.3849 -35.7925
rfingers 7.12502
rthumb -12.3748 -65.4062
lclavicle -6.16232e-015 -2.22639e-014
lhumerus -17.8589 -59.858 112.391
lradius 133.044
lwrist 12.9154
lhand -28.701 -61.4251
lfingers 7.12502
lthumb -2.06293 -31.4554
rfemur -7.15233 -3.30738 17.0719
rtibia 7.66403
rfoot -17.1352 -11.7038
rtoes -11.145
lfemur -22.4822 -2.51558 -10.8826
ltibia 29.0987
lfoot -15.0441 4.84134
ltoes -57.5801
